<?xml version="1.0" encoding="UTF-8" standalone="no"?>
<!DOCTYPE svg PUBLIC "-//W3C//DTD SVG 1.1//EN" "http://www.w3.org/Graphics/SVG/1.1/DTD/svg11.dtd">
<svg width="100%" height="100%" viewBox="0 0 24 24" version="1.1" xmlns="http://www.w3.org/2000/svg" xmlns:xlink="http://www.w3.org/1999/xlink" xml:space="preserve" xmlns:serif="http://www.serif.com/" style="fill-rule:evenodd;clip-rule:evenodd;stroke-linecap:round;stroke-linejoin:round;stroke-miterlimit:1.5;">
    <path d="M24,4.799L24,19.201C23.999,21.833 21.833,23.999 19.201,24L4.799,24C2.167,23.999 0.001,21.833 0,19.201L0,4.799C0.001,2.167 2.167,0.001 4.799,-0L19.201,0C21.833,0.001 23.999,2.167 24,4.799Z" style="fill:rgb(17,17,17);fill-rule:nonzero;"/>
    <g transform="matrix(0.351123,0.936329,-0.936329,0.351123,11,12)">
        <path d="M8.544,0C8.544,-4.719 4.719,-8.544 -0,-8.544C-4.29,-8.544 -7.767,-5.066 -7.767,-0.777C-7.767,3.036 -4.676,6.128 -0.863,6.128C2.473,6.128 5.178,3.423 5.178,0.086C5.178,-2.774 2.86,-5.092 -0,-5.092C-2.383,-5.092 -4.315,-3.16 -4.315,-0.777C-4.315,1.13 -2.77,2.675 -0.863,2.675C0.567,2.675 1.726,1.516 1.726,0.086C1.726,-0.867 0.953,-1.64 -0,-1.64C-0.477,-1.64 -0.863,-1.253 -0.863,-0.777" style="fill:none;stroke:white;stroke-width:2px;"/>
    </g>
</svg>
